<svg xmlns="http://www.w3.org/2000/svg" id="outline" viewBox="0 0 512 512" width="512" height="512"><path d="M176,176h8a24.0275,24.0275,0,0,0,24-24v-8H192v8a8.00917,8.00917,0,0,1-8,8h-8Z"></path><circle cx="168" cy="128.29773" r="8"></circle><circle cx="216" cy="128.29773" r="8"></circle><path d="M96,416h64a8.00008,8.00008,0,0,0,8-8V336a8.00008,8.00008,0,0,0-8-8H96a8.00008,8.00008,0,0,0-8,8v72A8.00008,8.00008,0,0,0,96,416Zm8-16V378.24634l22.05957,5.51489a8.0041,8.0041,0,0,0,3.88086,0L152,378.24634V400Zm48-56v17.75366l-24,6.00025-24-6.00025V344Z"></path><path d="M24.0332,488.72412A7.99937,7.99937,0,0,0,32,496H352a7.99937,7.99937,0,0,0,7.9668-7.27588l8-88a7.99372,7.99372,0,0,0-.12207-2.293L346.77637,293.08936A39.89793,39.89793,0,0,0,326.707,265.81885l-65.48974-35.72241L283.31348,208H296V192H280a8.00076,8.00076,0,0,0-5.65723,2.34326l-25.477,25.47705-14.76123-19.68164A63.8528,63.8528,0,0,0,256,152V72a56.06322,56.06322,0,0,0-56-56H184a56.06322,56.06322,0,0,0-56,56v80a63.8528,63.8528,0,0,0,21.89551,48.13867l-19.25293,25.67041L57.294,265.81836a39.89818,39.89818,0,0,0-20.07032,27.27148L16.15527,398.43115a7.99372,7.99372,0,0,0-.12207,2.293ZM331.08691,296.22754l20.84082,104.20361L344.69434,480h-24l7.27832-87.33545-15.94532-1.3291L304.63867,480H200V267.314l18.34277,18.34278a8.00038,8.00038,0,0,0,12.8125-2.0791l7.1128-14.22571,53.4917,33.43225a7.99769,7.99769,0,0,0,10.89648-2.34668l14.42822-21.64221,1.96143,1.06994A23.93821,23.93821,0,0,1,331.08691,296.22754ZM138.544,254.97583,90.34766,285.09912l-9.33057-13.9956,51.5354-28.11036ZM145.3667,232.845l8.64184-11.5227L180.68652,248l-18.49511,18.49463Zm20.21851-22.57373a63.76247,63.76247,0,0,0,52.82958,0L192,236.686Zm85.8623,32.72192,51.5354,28.11036-9.33057,13.9956-48.19629-30.12329Zm-29.63892,23.50147L203.31348,248l26.678-26.67773,8.64184,11.5227ZM144,80h96v2.5835l-20.11621,8.04638a75.07945,75.07945,0,0,1-55.76856,0L144,82.5835Zm40-48h16a40.07061,40.07061,0,0,1,39.19629,32H144.80371A40.07061,40.07061,0,0,1,184,32ZM144,152V99.81616l14.17285,5.66919a91.07808,91.07808,0,0,0,67.65332,0L240,99.81592V152a48,48,0,0,1-96,0ZM52.91309,296.228a23.93841,23.93841,0,0,1,12.042-16.36328l1.96045-1.06934L81.34375,300.4375a7.99769,7.99769,0,0,0,10.89648,2.34668l53.4917-33.43225,7.1128,14.22571a8.00008,8.00008,0,0,0,12.8125,2.0791L184,267.314V480H79.30542L71.9668,399.27588l-15.9336,1.44824L63.23926,480H39.30566l-7.23339-79.56885Z"></path><path d="M288,328H224a8.00008,8.00008,0,0,0-8,8v72a8.00008,8.00008,0,0,0,8,8h64a8.00008,8.00008,0,0,0,8-8V336A8.00008,8.00008,0,0,0,288,328Zm-8,16v17.75366l-24,6.00025-24-6.00025V344Zm-48,56V378.24634l22.05957,5.51489a8.0041,8.0041,0,0,0,3.88086,0L280,378.24634V400Z"></path><path d="M496,40a24.02718,24.02718,0,0,0-24-24H376a24.02718,24.02718,0,0,0-24,24V192h-8v16h8v24a24.02718,24.02718,0,0,0,24,24h96a24.02718,24.02718,0,0,0,24-24ZM480,232a8.00917,8.00917,0,0,1-8,8H376a8.00917,8.00917,0,0,1-8-8V40a8.00917,8.00917,0,0,1,8-8h12.686l13.65673,13.65674A8.00076,8.00076,0,0,0,408,48h32a8.00076,8.00076,0,0,0,5.65723-2.34326L459.314,32H472a8.00917,8.00917,0,0,1,8,8Z"></path><rect x="312" y="192" width="16" height="16"></rect><rect x="416" y="96" width="16" height="56"></rect><circle cx="424" cy="168" r="8"></circle></svg>